Coordinates
version=1
nRows=17
nColumns=40
inDegrees=yes

Units are S.I. units (second, meters, Newtons, ...)
Angles are in degrees.

endheader
time	pelvis_tilt	pelvis_list	pelvis_rotation	pelvis_tx	pelvis_ty	pelvis_tz	hip_flexion_r	hip_adduction_r	hip_rotation_r	knee_angle_r	knee_angle_r_beta	ankle_angle_r	subtalar_angle_r	mtp_angle_r	hip_flexion_l	hip_adduction_l	hip_rotation_l	knee_angle_l	knee_angle_l_beta	ankle_angle_l	subtalar_angle_l	mtp_angle_l	lumbar_extension	lumbar_bending	lumbar_rotation	arm_flex_r	arm_add_r	arm_rot_r	elbow_flex_r	pro_sup_r	wrist_flex_r	wrist_dev_r	arm_flex_l	arm_add_l	arm_rot_l	elbow_flex_l	pro_sup_l	wrist_flex_l	wrist_dev_l
     49.03592857	     -3.79287828	     -2.23483195	    -13.25369024	      1.16750187	      0.92913382	      0.43324964	     25.02100086	     -3.49859103	     -4.07676232	     18.31310878	     18.31310878	      6.19649039	      9.74832688	      5.26350753	      8.02045531	     -1.76214975	    -14.46207037	     19.11432212	     19.11432212	     16.52361512	    -16.63705412	     -0.47787310	     -9.92481190	      6.79802721	      1.57414830	    -20.92229638	    -10.30059315	    -17.86788383	     24.40962319	     46.71629885	      0.00000000	      0.00000000	     42.71898294	    -26.30440951	     -2.11042198	     61.94090157	     47.55797518	      0.00000000	      0.00000000
     49.05685714	     -4.00915533	     -2.05722359	    -13.97887313	      1.16841476	      0.92854733	      0.43780190	     24.69451614	     -3.03760290	     -4.45590035	     17.07802088	     17.07802088	      5.71682435	     10.69275621	      5.63250226	      7.46835147	     -1.81743463	    -15.25668612	     18.50935255	     18.50935255	     16.52127414	    -16.43587754	     -0.98418705	     -9.71786340	      6.48019172	      1.67003369	    -21.21449358	    -10.17782724	    -17.47992575	     24.88186992	     46.65671198	      0.00000000	      0.00000000	     43.60705885	    -26.60578491	     -2.90822482	     62.76929262	     47.63775899	      0.00000000	      0.00000000
     49.07778571	     -4.24156014	     -1.80778168	    -14.58328176	      1.16971507	      0.92764341	      0.44238262	     24.57323621	     -2.74388628	     -4.80910549	     16.53707630	     16.53707630	      4.96906692	     11.29070795	      4.47096614	      6.96900468	     -1.82014298	    -16.04932348	     17.93967923	     17.93967923	     16.11418128	    -16.28671029	     -2.67290252	     -9.47501888	      6.11484390	      1.58316447	    -21.53315704	    -10.22176136	    -15.97602896	     26.51975882	     46.45133296	      0.00000000	      0.00000000	     43.81469158	    -26.53575300	     -5.26731553	     64.43157810	     47.83444050	      0.00000000	      0.00000000
     49.09871429	     -4.34516363	     -1.63564131	    -15.07758667	      1.17149885	      0.92708228	      0.44701170	     24.31215068	     -2.42600801	     -4.75107118	     16.37001903	     16.37001903	      4.59360872	     11.24253540	      3.85305205	      6.25727743	     -1.79396147	    -16.57972920	     17.31904223	     17.31904223	     16.22916558	    -16.05471083	     -2.82304312	     -9.30756122	      5.82453186	      1.74258777	    -21.25543084	    -10.15991207	    -15.45243293	     26.79896390	     46.39989332	      0.00000000	      0.00000000	     44.37603080	    -26.51407622	     -5.71218170	     65.08926862	     47.87899267	      0.00000000	      0.00000000
     49.11964286	     -4.47623236	     -1.54499605	    -15.42686397	      1.17373883	      0.92635511	      0.45177611	     23.99431394	     -2.04206098	     -4.48255696	     16.26986240	     16.26986240	      3.40833662	     10.58930795	      0.31465077	      5.64775772	     -1.91978207	    -17.08395440	     16.91972788	     16.91972788	     16.17097224	    -15.83249334	     -3.60611373	     -9.08535949	      5.63843123	      1.49860066	    -20.86863606	    -10.43542399	    -13.60152986	     27.73612589	     46.22277512	      0.00000000	      0.00000000	     44.18131298	    -26.31741679	     -7.66417539	     66.58447287	     48.02606809	      0.00000000	      0.00000000
     49.14057143	     -4.54675471	     -1.46442608	    -15.66297400	      1.17629979	      0.92588006	      0.45654962	     23.83142890	     -1.76810217	     -4.15497279	     16.81704891	     16.81704891	      3.45542123	     10.00372401	     -0.29832384	      4.89249062	     -1.96663795	    -17.32883058	     16.37698535	     16.37698535	     16.31079823	    -15.60027023	     -3.55548366	     -8.88717184	      5.47189920	      1.62305684	    -20.22517645	    -10.41826049	    -13.27209846	     28.01303672	     46.19290704	      0.00000000	      0.00000000	     44.42293585	    -26.10593153	     -7.80848066	     66.97566992	     48.04103683	      0.00000000	      0.00000000
     49.16150000	     -4.61607558	     -1.50927559	    -15.74898434	      1.17922692	      0.92545665	      0.46149036	     23.45486156	     -1.33567346	     -3.56685475	     17.08431271	     17.08431271	      2.76404572	      8.66717901	     -3.21247687	      4.15123689	     -2.18964737	    -17.53883662	     15.96435760	     15.96435760	     16.42038699	    -15.28694777	     -3.67312718	     -8.70077863	      5.43254508	      1.32086852	    -19.45832895	    -10.77419565	    -11.56896749	     28.66318196	     46.05791856	      0.00000000	      0.00000000	     43.88897691	    -25.84194434	     -9.25299801	     68.22765467	     48.13455063	      0.00000000	      0.00000000
     49.18242857	     -4.61295592	     -1.59254659	    -15.70056433	      1.18231250	      0.92527585	      0.46641751	     23.21679412	     -1.01104732	     -3.25544907	     17.89122810	     17.89122810	      3.12990642	      7.82884030	     -3.56469417	      3.30146875	     -2.41027085	    -17.55342699	     15.48797816	     15.48797816	     16.49840292	    -14.99391634	     -3.54904023	     -8.59575504	      5.41788387	      1.37999400	    -18.67007578	    -10.88405782	    -11.40457863	     28.97536464	     46.04144792	      0.00000000	      0.00000000	     43.87605640	    -25.45326735	     -9.24806855	     68.41945348	     48.13389474	      0.00000000	      0.00000000
     49.20335714	     -4.73517232	     -1.78134445	    -15.46539269	      1.18544027	      0.92510593	      0.47128215	     22.94200217	     -0.62521883	     -3.23050794	     18.44959595	     18.44959595	      3.49488552	      7.32543206	     -3.80891773	      2.69111193	     -2.82360361	    -17.40687996	     15.23001268	     15.23001268	     16.54309088	    -14.79591144	     -3.46528537	     -8.35402181	      5.55367572	      1.34900652	    -17.75844144	    -10.99420090	    -11.35233424	     29.33087372	     46.03107189	      0.00000000	      0.00000000	     43.69533277	    -24.89185946	     -9.12399181	     68.48579214	     48.12349333	      0.00000000	      0.00000000
     49.22428571	     -4.60530775	     -1.90194936	    -15.21552481	      1.18866784	      0.92523452	      0.47646844	     22.66702169	     -0.23976441	     -2.55242487	     19.44631301	     19.44631301	      4.03884987	      5.63590640	     -4.08976596	      1.64144646	     -3.08049696	    -17.37623238	     14.61667325	     14.61667325	     16.58383512	    -14.19929156	     -3.21527001	     -8.39906314	      5.45716375	      1.27271736	    -16.96403387	    -11.19321948	    -11.23480702	     29.75304365	     46.01356750	      0.00000000	      0.00000000	     43.39168473	    -24.49948342	     -9.36141247	     68.68401049	     48.13754036	      0.00000000	      0.00000000
     49.24521429	     -4.62192164	     -2.09733545	    -14.78003727	      1.19171230	      0.92539393	      0.48150864	     22.31759778	      0.22906563	     -2.09010750	     20.01989277	     20.01989277	      4.50671866	      4.02321395	     -4.10611010	      0.91254996	     -3.53102171	    -17.25784763	     14.28537296	     14.28537296	     16.61765800	    -13.56690298	     -2.87660363	     -8.32464142	      5.52261877	      1.05137331	    -15.97801433	    -11.40363798	    -11.06999465	     30.34718532	     45.98800432	      0.00000000	      0.00000000	     42.83061509	    -23.97373012	     -9.69462848	     68.88100163	     48.15424354	      0.00000000	      0.00000000
     49.26614286	     -4.67928287	     -2.35660970	    -14.21987877	      1.19457922	      0.92559901	      0.48649041	     21.99593473	      0.67512605	     -2.10064548	     20.57043842	     20.57043842	      5.17371982	      3.04843748	     -3.58321738	      0.41514151	     -4.16487082	    -17.15745510	     14.33655052	     14.33655052	     17.12671498	    -12.55042485	     -1.77489846	     -8.22145102	      5.63314193	      0.57026565	    -14.99907346	    -11.78856154	    -10.21310928	     31.18820812	     45.91726027	      0.00000000	      0.00000000	     41.86934460	    -23.42086425	    -10.62698462	     69.48360000	     48.19221857	      0.00000000	      0.00000000
     49.28707143	     -4.74340190	     -2.54559608	    -13.56188761	      1.19719159	      0.92579425	      0.49128519	     21.64564537	      0.96160635	     -2.48928089	     20.94910108	     20.94910108	      5.66232390	      2.58237247	     -3.73471232	     -0.02978204	     -4.68917236	    -16.73500109	     14.27026477	     14.27026477	     16.97437868	    -12.21835461	     -1.67712864	     -8.10742116	      5.63441975	      0.48657070	    -14.01959801	    -11.97338693	    -10.20688662	     31.56230285	     45.91009362	      0.00000000	      0.00000000	     41.31953250	    -22.63802628	    -10.33389492	     69.30047767	     48.16279820	      0.00000000	      0.00000000
     49.30800000	     -4.74784593	     -2.78517059	    -12.86619745	      1.19958966	      0.92618556	      0.49615814	     21.21487792	      1.38533323	     -2.56949060	     21.28791612	     21.28791612	      6.23255707	      1.49890826	     -3.38567527	     -0.51080130	     -5.31679334	    -16.49770017	     14.24961340	     14.24961340	     17.01988714	    -11.40582733	     -1.26950248	     -8.07704801	      5.67606448	      0.19848969	    -12.92552990	    -12.21681262	    -10.18291591	     32.14819352	     45.89693779	      0.00000000	      0.00000000	     40.56271069	    -22.10496681	    -10.23189619	     68.74169006	     48.13242113	      0.00000000	      0.00000000
     49.32892857	     -4.79763757	     -2.90583251	    -12.12035804	      1.20167247	      0.92646942	      0.50076838	     20.82507813	      1.59300415	     -3.07944984	     21.49832493	     21.49832493	      6.73125577	      1.09607772	     -3.47784227	     -0.77423858	     -5.82972117	    -16.04055928	     14.36944368	     14.36944368	     16.83589919	    -11.06359781	     -1.15517633	     -8.01796489	      5.56850155	      0.21914613	    -11.84863964	    -12.42699564	    -10.18992021	     32.56079998	     45.88976253	      0.00000000	      0.00000000	     39.72301867	    -21.15910591	     -9.90466491	     68.45949357	     48.09647167	      0.00000000	      0.00000000
     49.34985714	     -4.83966208	     -3.03990080	    -11.35189301	      1.20346963	      0.92681816	      0.50529714	     20.39363027	      1.82429279	     -3.60095025	     21.61244567	     21.61244567	      7.20520358	      0.70743205	     -3.52830078	     -0.94700745	     -6.38459765	    -15.54723165	     14.61545028	     14.61545028	     16.66740658	    -10.72431938	     -1.04552680	     -7.99730609	      5.45072582	      0.23783952	    -10.68661270	    -12.65392554	    -10.20563776	     33.00973452	     45.88228664	      0.00000000	      0.00000000	     38.69196335	    -20.17689867	     -9.56243668	     68.04676020	     48.05576967	      0.00000000	      0.00000000
     49.37078571	     -4.86449597	     -3.15336596	    -10.55677968	      1.20502638	      0.92719267	      0.50966869	     19.90105300	      2.03297521	     -4.15007341	     21.60416887	     21.60416887	      7.68822314	      0.34377824	     -3.55612283	     -0.99106071	     -6.95131323	    -15.02709437	     15.05894472	     15.05894472	     16.50320521	    -10.43255885	     -0.95751891	     -8.00060632	      5.34754542	      0.30220350	     -9.39833086	    -12.89147563	    -10.22124397	     33.49615142	     45.87419827	      0.00000000	      0.00000000	     37.45306923	    -19.14104272	     -9.19342205	     67.50469364	     48.00935543	      0.00000000	      0.00000000
